<?xml version="1.0" encoding="UTF-8"?>
<svg version="1.1" xmlns="http://www.w3.org/2000/svg" width="1024" height="1024">
<path d="M0 0 C337.92 0 675.84 0 1024 0 C1024 337.92 1024 675.84 1024 1024 C686.08 1024 348.16 1024 0 1024 C0 686.08 0 348.16 0 0 Z " fill="#FDFDFD" transform="translate(0,0)"/>
<path d="M0 0 C0.66 0 1.32 0 2 0 C3.02383911 1.14920716 3.99384347 2.34659048 4.9375 3.5625 C13.69079924 13.71776503 25.24123965 17.89802124 38.35546875 19.37890625 C51.84074469 19.8880945 64.51675721 15.49822171 74.6484375 6.54296875 C75.79622838 5.39169971 76.90148615 4.19837875 78 3 C79.32013899 1.98264518 80.65161978 0.97961653 82 0 C82.11694686 26.63448978 82.20504389 53.26894091 82.25906086 79.90363598 C82.28481166 92.27137538 82.31990259 104.63895498 82.37719727 117.0065918 C82.4271277 127.78974926 82.45931371 138.57279095 82.47044247 149.3560608 C82.47694485 155.06256943 82.49216238 160.76874694 82.52865028 166.47514915 C82.56276195 171.85385618 82.57302235 177.23209786 82.56553841 182.61090279 C82.56690619 184.57762563 82.57674761 186.54436514 82.59602737 188.51099396 C82.72799424 202.67525749 81.44973036 214.34290153 72.25 225.8125 C71.47140625 226.80894531 70.6928125 227.80539062 69.890625 228.83203125 C62.42858785 237.32121497 53.59525792 242.92380922 43.875 248.4375 C42.56020863 249.19399728 41.24608519 249.95165657 39.93261719 250.71044922 C37.39130299 252.17772453 34.84768155 253.64083627 32.30175781 255.10009766 C28.59182344 257.23487356 24.91466259 259.41356568 21.25 261.625 C20.14527344 262.29144531 19.04054688 262.95789063 17.90234375 263.64453125 C17.3079248 264.00369629 16.71350586 264.36286133 16.10107422 264.73291016 C11.34371908 267.60191703 6.57686759 270.45515981 1.8125 273.3125 C-0.36851821 274.62104604 -2.54950798 275.92963947 -4.73046875 277.23828125 C-37.09375 296.65625 -37.09375 296.65625 -40.27661133 298.56591797 C-42.42754767 299.85651236 -44.57842647 301.14720264 -46.72924805 302.43798828 C-51.50177294 305.30201478 -56.27474843 308.16526395 -61.05078125 311.0234375 C-70.69760989 316.79855027 -80.32449712 322.60628353 -89.9375 328.4375 C-90.53121399 328.79760162 -91.12492798 329.15770325 -91.7366333 329.52871704 C-100.81817673 335.03975633 -109.86594596 340.60311092 -118.86889648 346.24194336 C-120.06881226 346.99036499 -120.06881226 346.99036499 -121.29296875 347.75390625 C-121.9893042 348.19033447 -122.68563965 348.6267627 -123.40307617 349.07641602 C-125 350 -125 350 -126 350 C-126.01417969 348.86304688 -126.02835938 347.72609375 -126.04296875 346.5546875 C-126.44629953 330.71102699 -129.88243471 317.62692648 -141.09765625 305.78515625 C-146.19067937 300.96160525 -151.56979941 297.74667509 -158 295 C-159.19882812 294.47019531 -159.19882812 294.47019531 -160.421875 293.9296875 C-171.70647211 289.86039339 -184.30108114 291.01409606 -195 296 C-196.04027344 296.433125 -196.04027344 296.433125 -197.1015625 296.875 C-203.12753048 299.56387814 -207.98955185 303.76986755 -213 308 C-210.54583728 306.90926101 -208.67442009 305.73869991 -206.56640625 304.046875 C-196.47183176 295.99579884 -184.34867616 295.7475935 -172 297 C-159.99904229 299.0959344 -149.46591448 305.97548812 -142.02734375 315.53515625 C-134.40370552 326.7844738 -131.43351387 337.84193997 -133.5078125 351.29296875 C-136.05829538 363.79619804 -141.17626588 373.9774949 -151.69140625 381.55078125 C-160.51552551 387.09011838 -169.88508175 390.39498607 -180.3125 390.3125 C-181.06088135 390.30686035 -181.8092627 390.3012207 -182.58032227 390.29541016 C-195.33915544 390.01645309 -205.74133745 384.6105148 -215.1171875 376.05078125 C-220.60269132 370.07590676 -226.65659857 361.37995572 -227.1875 353.0625 C-227.125625 352.381875 -227.06375 351.70125 -227 351 C-227.70487549 350.90485107 -228.40975098 350.80970215 -229.13598633 350.71166992 C-232.52216086 349.87024986 -234.86924083 348.46678251 -237.82421875 346.61328125 C-238.93603516 345.92169922 -240.04785156 345.23011719 -241.19335938 344.51757812 C-242.35824018 343.7828172 -243.52295294 343.04778978 -244.6875 342.3125 C-245.83223555 341.59629068 -246.9774145 340.88078954 -248.12304688 340.16601562 C-250.35703361 338.77154436 -252.5887025 337.37335195 -254.81787109 335.97119141 C-258.59077561 333.63404003 -262.42105424 331.40641522 -266.28051758 329.21557617 C-266.84794678 328.81443604 -267.41537598 328.4132959 -268 328 C-268 327.34 -268 326.68 -268 326 C-265.65527344 324.40283203 -265.65527344 324.40283203 -262.359375 322.5078125 C-261.76973969 322.16575775 -261.18010437 321.823703 -260.57260132 321.47128296 C-258.63549066 320.34921185 -256.69273308 319.23730294 -254.75 318.125 C-252.74420152 316.96552508 -250.73996973 315.8033726 -248.73574829 314.64117432 C-247.39394698 313.86340768 -246.05163916 313.08651424 -244.70883179 312.31048584 C-239.14752924 309.09532434 -233.62596801 305.81739023 -228.125 302.5 C-227.3220752 302.01668213 -226.51915039 301.53336426 -225.69189453 301.03540039 C-223.46055084 299.69144385 -221.23019536 298.34586095 -219 297 C-209.67806816 291.38287827 -200.32641937 285.81813852 -190.953125 280.28710938 C-185.77496241 277.23143213 -180.59977989 274.17087856 -175.4296875 271.1015625 C-163.54984501 264.04927237 -151.65210257 257.03032824 -139.71191406 250.08056641 C-130.34808253 244.62791376 -121.01927542 239.11699805 -111.69580078 233.59570312 C-108.13557541 231.48832828 -104.57315607 229.38467829 -101.01074219 227.28100586 C-90.92159319 221.32263855 -80.8353773 215.35925609 -70.76025391 209.37719727 C-65.11239536 206.02397612 -59.4597947 202.67950491 -53.79241943 199.35934448 C-50.94873933 197.69233012 -48.10810966 196.02015639 -45.26776123 194.34747314 C-43.90931936 193.5491798 -42.54955138 192.7531376 -41.18829346 191.95965576 C-33.37270336 187.40249672 -25.83988953 182.64275512 -18.55619812 177.26712036 C-15.79838485 175.23691449 -13.13496091 173.39617502 -10 172 C-9.9906543 172.74983154 -9.98130859 173.49966309 -9.97167969 174.2722168 C-10.06401522 193.59304429 -10.06401522 193.59304429 -5 212 C-4.55140625 213.11761719 -4.55140625 213.11761719 -4.09375 214.2578125 C0.87039308 225.5127231 10.87235481 232.83417566 22.12890625 237.21875 C25.93807446 238.25525836 29.07028253 238.1355075 33 238 C32.3709375 237.78085937 31.741875 237.56171875 31.09375 237.3359375 C24.8728054 235.03118995 20.10888894 232.19043699 15 228 C14.13375 227.401875 13.2675 226.80375 12.375 226.1875 C4.74564896 219.16046615 1.40924556 210.05721473 0 200 C-0.08859271 197.21958632 -0.13089815 194.4653722 -0.12025452 191.68569946 C-0.12153615 190.45294393 -0.12153615 190.45294393 -0.12284368 189.19528425 C-0.12448674 186.44999132 -0.11899637 183.70475992 -0.11352539 180.95947266 C-0.11324324 178.98816937 -0.1134018 177.01686597 -0.1139679 175.04556274 C-0.11425478 169.69897191 -0.1083756 164.35240351 -0.10139394 159.00581789 C-0.09514231 153.41642654 -0.09455517 147.82703468 -0.09336853 142.23764038 C-0.09026056 131.65554421 -0.08205435 121.07345837 -0.07201904 110.49136674 C-0.06084135 98.44309063 -0.05534327 86.39481402 -0.05032361 74.34653401 C-0.03987131 49.56435028 -0.02228218 24.78217572 0 0 Z " fill="#20201E" transform="translate(692,412)"/>
<path d="M0 0 C11.06836975 8.29700051 20.79303617 21.07128126 23 35 C24.01748588 47.59225691 24.35034569 60.33084842 19 72 C18.51402344 73.08152344 18.02804687 74.16304687 17.52734375 75.27734375 C8.74591019 93.06856967 -6.30512995 102.51512674 -22.94262695 112.08520508 C-26.11930149 113.91276915 -29.28533507 115.75865646 -32.453125 117.6015625 C-33.41279175 118.15889069 -33.41279175 118.15889069 -34.3918457 118.72747803 C-40.46421655 122.25820978 -46.48592756 125.87095241 -52.5 129.5 C-65.04137738 137.05451491 -77.67034571 144.45549671 -90.31054688 151.84277344 C-95.77446522 155.0366145 -101.23351369 158.2387616 -106.69290161 161.44033813 C-109.10215236 162.85309527 -111.51165614 164.26542055 -113.92115784 165.67774963 C-118.80307757 168.53929775 -123.68467243 171.40139857 -128.5657196 174.26443481 C-131.64787686 176.07229864 -134.73016252 177.87994346 -137.8125 179.6875 C-138.41635529 180.04162964 -139.02021057 180.39575928 -139.6423645 180.76062012 C-148.88234209 186.17881063 -158.13305238 191.57840234 -167.38916016 196.96899414 C-173.08169327 200.28748763 -178.76085115 203.62739613 -184.42773438 206.98950195 C-187.15181187 208.60385043 -189.88014462 210.21078798 -192.609375 211.81640625 C-196.26095256 213.96505601 -199.89219218 216.14411526 -203.515625 218.33984375 C-218.07693069 227.06282251 -232.43847404 233.94744024 -249.9140625 230.41015625 C-262.42051027 226.75261021 -273.59442641 218.88457413 -284.57983398 212.10595703 C-290.05644198 208.72923818 -295.56094327 205.39835196 -301.0625 202.0625 C-302.26833919 201.33085775 -303.47414905 200.59916717 -304.67993164 199.86743164 C-308.45301447 197.57783714 -312.22647575 195.28886689 -316 193 C-320.38378297 190.34097489 -324.76739628 187.68167088 -329.15060425 185.021698 C-330.87437136 183.97580326 -332.59843496 182.93039721 -334.32250977 181.88500977 C-335.40072998 181.23072998 -336.4789502 180.5764502 -337.58984375 179.90234375 C-338.64051025 179.26594971 -339.69117676 178.62955566 -340.77368164 177.97387695 C-343.03373907 176.59116305 -345.28161245 175.19685081 -347.52124023 173.78198242 C-348.39281517 173.23490379 -348.39281517 173.23490379 -349.28199768 172.67677307 C-350.89375036 171.66345075 -352.50145548 170.6436987 -354.10888672 169.62353516 C-356.81725749 168.10262099 -359.18836953 167.19021931 -362.1875 166.4375 C-372.28766259 163.86327025 -381.05637648 155.65698776 -386.75 147.125 C-393.23599501 136.13721239 -394.91781201 122.28867986 -392.3515625 109.859375 C-388.08554271 97.09777734 -378.74180167 86.26283613 -366.8125 80.0625 C-353.38906116 74.0458118 -340.66631355 74.89188035 -327 80 C-319.23043325 83.32812234 -312.05779905 88.71908133 -307.125 95.625 C-304.89594657 98.11629501 -303.15800083 99.12304922 -300.22265625 100.671875 C-295.89271846 102.98527467 -291.58612399 105.3313774 -287.30078125 107.7265625 C-285.58084961 108.685625 -285.58084961 108.685625 -283.82617188 109.6640625 C-282.06197387 110.6482967 -280.29808105 111.633064 -278.53491211 112.61914062 C-260.23877355 123.58843458 -260.23877355 123.58843458 -239.6171875 124.30078125 C-230.24968921 121.62577378 -223.10523797 117.06254496 -215.36328125 111.23046875 C-211.08775135 108.01021462 -206.6516027 105.06333116 -202.18725586 102.11254883 C-196.7994704 98.54146437 -191.46605112 94.8904501 -186.125 91.25 C-183.96111121 89.77578666 -181.79705423 88.30182016 -179.6328125 86.828125 C-178.69324707 86.1877832 -177.75368164 85.54744141 -176.78564453 84.88769531 C-175.86638184 84.26475586 -174.94711914 83.64181641 -174 83 C-172.95569824 82.24041992 -171.91139648 81.48083984 -170.83544922 80.69824219 C-169.89975098 80.13782227 -168.96405273 79.57740234 -168 79 C-164.41629769 80.19456744 -164.17601822 80.97463969 -162.3125 84.125 C-155.88410057 94.051205 -146.82731921 99.41473681 -135.4375 102.3125 C-121.56497299 104.90896227 -110.49219971 101.38863154 -98.95703125 93.625 C-91.62476497 87.92752157 -85.98430351 78.07837063 -84.69873047 68.83349609 C-84.56371212 66.58800652 -84.53214055 64.37424995 -84.5625 62.125 C-84.57007324 61.33488525 -84.57764648 60.54477051 -84.58544922 59.73071289 C-84.85353782 50.21161052 -88.17903126 43.62522799 -93.73046875 36.0078125 C-95.05691436 33.90998775 -95.79522081 32.4773288 -96 30 C-94.9609375 28.4296875 -94.9609375 28.4296875 -93.375 26.875 C-90.72055253 24.07075301 -89.42044527 21.72383439 -88.0625 18.125 C-84.82949756 11.27559419 -78.37665141 8.56778122 -72.01074219 5.13085938 C-68.79009668 3.31953956 -65.75551185 1.24287296 -62.6875 -0.8125 C-43.04230611 -13.70345777 -19.31365807 -13.79547005 0 0 Z " fill="#20201E" transform="translate(638,483)"/>
<path d="M0 0 C0.71422119 -0.03077637 1.42844238 -0.06155273 2.16430664 -0.09326172 C13.91213551 -0.09587496 24.4517103 6.40558286 34.25 12.25 C35.94320714 13.24323792 37.63641689 14.2364714 39.32974243 15.22950745 C41.10182222 16.27105507 42.87109883 17.31721684 44.63964844 18.36474609 C48.26576662 20.51172181 51.90133569 22.64229876 55.5390625 24.76953125 C60.41281732 27.6204874 65.28383453 30.47603313 70.15234375 33.3359375 C77.86121236 37.86329339 85.58467288 42.36554271 93.31298828 46.85961914 C98.62760841 49.95419003 103.90782975 53.09513072 109.1496582 56.31176758 C111.32717178 57.63233154 111.32717178 57.63233154 114.25 58.5 C114.25 59.16 114.25 59.82 114.25 60.5 C113.46238281 60.56316406 112.67476562 60.62632812 111.86328125 60.69140625 C99.19914335 62.11518507 87.62250809 67.70305764 79.25 77.5 C69.9391548 90.90172622 66.6267014 104.00775535 69.25 120.125 C69.57520774 121.91815936 69.90561441 123.71042488 70.25 125.5 C66.55031247 124.11428973 63.22426045 122.43333727 59.8125 120.4453125 C58.76271973 119.8359082 57.71293945 119.22650391 56.63134766 118.59863281 C55.51550293 117.94733398 54.3996582 117.29603516 53.25 116.625 C52.08545283 115.95092846 50.92057262 115.27743198 49.75537109 114.60449219 C44.24551601 111.4196642 38.75189449 108.2104322 33.2890625 104.9453125 C20.5549553 97.19124758 20.5549553 97.19124758 6.25 93.5 C5.48042969 93.40332031 4.71085938 93.30664062 3.91796875 93.20703125 C-9.0612758 92.36599439 -19.90878003 101.11084732 -30.2109375 107.84472656 C-34.36904089 110.55549012 -38.55689566 113.2187954 -42.75 115.875 C-43.53995361 116.37612305 -44.32990723 116.87724609 -45.14379883 117.39355469 C-50.88851165 121.0143911 -56.7034934 124.4020146 -62.75 127.5 C-63.38615234 126.62988281 -63.38615234 126.62988281 -64.03515625 125.7421875 C-69.88240174 117.95442757 -75.65862707 112.2385085 -84.75 108.5 C-85.62011719 108.14164062 -86.49023438 107.78328125 -87.38671875 107.4140625 C-96.77087613 104.86366433 -109.86880729 104.77236115 -118.65234375 109.171875 C-129.97288861 116.3394453 -137.34704588 124.51578101 -141.3671875 137.4921875 C-143.53153583 148.84397363 -140.82247054 160.25388341 -134.5 169.8125 C-133.59972414 171.05372192 -132.68942674 172.2881395 -131.75 173.5 C-133.28077447 177.78616851 -136.48930778 179.84744943 -140.0625 182.375 C-140.71041504 182.84043213 -141.35833008 183.30586426 -142.02587891 183.78540039 C-147.83327167 187.92068088 -153.71855751 191.94540062 -159.625 195.9375 C-160.92497925 196.82381104 -160.92497925 196.82381104 -162.2512207 197.72802734 C-175.30829482 206.44938883 -188.39760953 210.91826554 -204.26171875 207.8125 C-216.82440023 204.24440112 -228.42591051 197.36243312 -235.39453125 186.078125 C-241.63275489 174.21291578 -242.9742829 159.94038964 -239.90234375 146.90234375 C-233.7103025 130.63511674 -220.33282518 121.97252379 -206 113.625 C-204.56746007 112.78373989 -203.13533674 111.94176999 -201.70361328 111.09912109 C-198.79091348 109.38581866 -195.87625899 107.67592006 -192.95996094 105.96875 C-186.83313157 102.37972465 -180.73027453 98.75053495 -174.625 95.125 C-170.33395394 92.58228511 -166.04193899 90.04120731 -161.75 87.5 C-160.81607422 86.94683105 -159.88214844 86.39366211 -158.91992188 85.82373047 C-137.94111121 73.40008181 -116.90175314 61.07977465 -95.8371582 48.80224609 C-88.68394669 44.63166038 -81.53743643 40.44972636 -74.39447021 36.2616272 C-72.56921996 35.19144007 -70.74384199 34.12147102 -68.91845703 33.05151367 C-63.21975605 29.71065853 -57.52256419 26.36727634 -51.82920837 23.01731873 C-49.22165299 21.4832819 -46.61334776 19.95052262 -44.00497437 18.4178772 C-42.77447538 17.69437503 -41.54433793 16.97025754 -40.31460571 16.24545288 C-13.312204 0.33082432 -13.312204 0.33082432 0 0 Z " fill="#20201F" transform="translate(613.75,271.5)"/>
<path d="M0 0 C5.21243404 3.2811409 10.49071051 6.45469334 15.76043701 9.6427002 C17.62897994 10.77362401 19.49635522 11.90644839 21.36328125 13.04003906 C27.49603585 16.79334425 27.49603585 16.79334425 33.71899414 20.39257812 C34.77147339 21.08480469 34.77147339 21.08480469 35.84521484 21.79101562 C35.84521484 22.45101562 35.84521484 23.11101562 35.84521484 23.79101562 C33.60473633 25.34399414 33.60473633 25.34399414 30.46630859 27.16992188 C29.90771149 27.49780197 29.34911438 27.82568207 28.77359009 28.16349792 C26.94717396 29.23362836 25.11499315 30.2934595 23.28271484 31.35351562 C22.02565998 32.08807531 20.76906843 32.82342844 19.51293945 33.55957031 C17.04957901 35.00249618 14.58443945 36.44229495 12.11767578 37.87939453 C8.36391926 40.07216636 4.62962612 42.29475672 0.90771484 44.54101562 C-0.78611328 45.56001953 -0.78611328 45.56001953 -2.51416016 46.59960938 C-3.37750977 47.11950439 -3.37750977 47.11950439 -4.25830078 47.64990234 C-7.2657735 49.45949651 -10.27595111 51.26457792 -13.28588867 53.07006836 C-14.99742982 54.09673152 -16.70885465 55.12358863 -18.42016602 56.15063477 C-22.57643694 58.64502415 -26.73354152 61.1379932 -30.89306641 63.62695312 C-40.1170357 69.14934811 -49.31771151 74.70878059 -58.50219727 80.29653931 C-59.10942627 80.66596649 -59.71665527 81.03539368 -60.34228516 81.41601562 C-60.95096436 81.78632904 -61.55964355 82.15664246 -62.18676758 82.53817749 C-69.61837443 87.05773557 -77.06964729 91.53725612 -84.58544922 95.91577148 C-90.69677599 99.4901111 -96.73517817 103.18237904 -102.77783203 106.87109375 C-112.50036464 112.80508297 -122.26628106 118.63557552 -132.15478516 124.29101562 C-145.97992829 132.20152328 -159.57308028 140.47227364 -173.15478516 148.79101562 C-175.90525255 150.47393336 -178.65586613 152.15661115 -181.40673828 153.83886719 C-182.94001749 154.77713311 -184.47261834 155.71650888 -186.00439453 156.65722656 C-190.94024448 159.68374529 -190.94024448 159.68374529 -193.15478516 160.79101562 C-193.18056641 159.64246094 -193.20634766 158.49390625 -193.23291016 157.31054688 C-193.70487033 142.6528577 -196.15678994 130.78190625 -205.15478516 118.79101562 C-205.87021484 117.82228516 -205.87021484 117.82228516 -206.60009766 116.83398438 C-214.94038474 107.16187134 -228.17163652 103.06221096 -240.43603516 101.94726562 C-241.78181641 101.86992187 -241.78181641 101.86992187 -243.15478516 101.79101562 C-243.15478516 101.13101563 -243.15478516 100.47101563 -243.15478516 99.79101562 C-242.48833984 99.43910156 -241.82189453 99.0871875 -241.13525391 98.72460938 C-235.41740659 95.66176249 -229.91311146 92.40834654 -224.46728516 88.88867188 C-220.25844831 86.22340609 -215.99217886 83.66109192 -211.71728516 81.10351562 C-210.85240479 80.5860376 -209.98752441 80.06855957 -209.09643555 79.53540039 C-207.3194252 78.47304837 -205.54216103 77.41112082 -203.76464844 76.34960938 C-185.64459494 65.52842869 -167.60378742 54.57796619 -149.57128906 43.61181641 C-131.77794123 32.79147753 -113.94539508 22.03864 -96.07275391 11.34960938 C-94.89175196 10.64259878 -93.71076178 9.93556851 -92.52978516 9.22851562 C-90.83595703 8.2153125 -90.83595703 8.2153125 -89.10791016 7.18164062 C-85.87465992 5.23618122 -82.66264925 3.2573532 -79.45166016 1.27539062 C-77.92532959 0.33675171 -77.92532959 0.33675171 -76.36816406 -0.62084961 C-74.36234449 -1.8552611 -72.35924581 -3.09410879 -70.359375 -4.33813477 C-45.19550742 -19.8026573 -24.17156565 -15.40284946 0 0 Z " fill="#20201E" transform="translate(551.15478515625,228.208984375)"/>
<path d="M0 0 C1.12728516 0.51046875 1.12728516 0.51046875 2.27734375 1.03125 C13.86613792 6.89498175 22.11190296 15.94780677 26.375 28.1875 C29.87024977 40.7880223 28.60110443 52.30235089 22.50390625 63.828125 C18.84663355 70.06646546 18.84663355 70.06646546 16.43336773 72.72743607 C14.50883507 75.77872809 14.61545438 77.92076821 14.60127258 81.51727295 C14.59462576 82.16997547 14.58797893 82.822678 14.58113068 83.49515939 C14.56249196 85.68020008 14.56510642 87.86469361 14.56762695 90.04980469 C14.55861028 91.61688511 14.5482833 93.18395847 14.53674316 94.75102234 C14.50913571 99.0048006 14.49988359 103.25844519 14.49388909 107.51230145 C14.48451515 111.95798236 14.45831258 116.40356304 14.43388367 120.84918213 C14.39018797 129.2674045 14.36165988 137.68560745 14.33856028 146.10390878 C14.31152506 155.68791546 14.26761253 165.27182145 14.22227156 174.85575628 C14.12938131 194.57045005 14.05772064 214.28517396 14 234 C13.22744873 233.21753906 12.45489746 232.43507813 11.65893555 231.62890625 C-1.09162354 219.02234852 -15.12539267 213.55363619 -32.74951172 213.56396484 C-43.72233992 213.81388131 -53.54365009 218.00093369 -62 225 C-62.495 225.99 -62.495 225.99 -63 227 C-63.66 227 -64.32 227 -65 227 C-65.09353051 202.02594064 -65.16402198 177.05190761 -65.20724869 152.07770824 C-65.227855 140.48118922 -65.25593876 128.88477916 -65.30175781 117.28833008 C-65.3416846 107.17833056 -65.36744684 97.06840997 -65.37635398 86.95833379 C-65.3815588 81.60740434 -65.39375193 76.25670067 -65.42292023 70.90584373 C-65.45018156 65.86369988 -65.45842336 60.82187364 -65.45243073 55.77966309 C-65.45352618 53.93466271 -65.46141591 52.08965111 -65.4768219 50.24471474 C-65.60217344 34.45127978 -62.91143263 21.90540011 -51.96875 9.7421875 C-38.51593523 -3.07698019 -17.33147075 -7.91566251 0 0 Z " fill="#20201E" transform="translate(322,338)"/>
<path d="M0 0 C7.99686468 5.92463366 14.24061022 16.20606358 16 26 C17.13986655 40.37498376 14.5330146 51.6760481 5.40625 62.97265625 C-1.74637781 70.64823563 -12.13954965 76.85507683 -22.76953125 77.43359375 C-24.45035574 77.45718832 -26.13163359 77.45789068 -27.8125 77.4375 C-29.13471558 77.42505249 -29.13471558 77.42505249 -30.48364258 77.41235352 C-44.17204498 77.05787549 -53.00002508 71.41233543 -62.3125 61.6875 C-71.03299865 51.52516592 -71.85662796 39.04093944 -71.22216797 26.21484375 C-70.23747412 16.39820355 -64.07747452 7.2438593 -56.64453125 1.03125 C-38.03849631 -12.58432905 -19.32249273 -11.28488848 0 0 Z " fill="#222221" transform="translate(762,346)"/>
<path d="M0 0 C5.54680071 3.19568765 10.33905528 8.55224485 12.75 14.5 C13.7818852 21.4472271 12.60608661 27.62031108 8.75 33.5 C4.73915479 37.84585781 0.53320795 41.20845812 -5.45703125 41.8359375 C-17.74954766 41.96911753 -17.74954766 41.96911753 -23.25 37.5 C-28.16819721 32.55887413 -31.53200539 28.37406295 -31.5625 21.1875 C-31.41960887 14.03341756 -29.40830873 8.65830873 -24.25 3.5 C-16.90374517 -2.06720356 -8.65880812 -3.73484374 0 0 Z " fill="#FAFAFA" transform="translate(521.25,734.5)"/>
<path d="M0 0 C5.14216964 2.9774821 8.51244926 6.46465154 10.625 12.0625 C11.6607472 18.23918222 11.70612463 24.03793997 8.5 29.5625 C4.91904781 34.35733429 0.54632882 38.54774147 -5.375 40.0625 C-13.21802266 40.90713321 -19.07617724 39.21942258 -25.625 34.9375 C-30.27884598 30.07211556 -32.5339589 24.86141221 -33 18.125 C-32.73871661 12.1434766 -30.07492224 7.65174596 -26.375 3.0625 C-19.18536425 -3.4719651 -8.63968347 -3.81509543 0 0 Z " fill="#FAFAFA" transform="translate(302.375,585.9375)"/>
<path d="M0 0 C5.2216357 3.00378631 9.83744292 7.76232875 11.75 13.5 C12.45326086 20.63636835 12.1386579 26.6356238 7.75 32.5 C3.47448674 37.04906506 -0.76886485 40.04385126 -7.08203125 40.87109375 C-14.19444446 41.02956167 -18.85259731 40.28377686 -24.25 35.5 C-29.07783117 30.78329538 -31.52087931 25.96014104 -31.6875 19.1875 C-31.55597552 13.43136992 -30.12660229 9.74756902 -26.25 5.5 C-18.72154686 -1.20823256 -9.7846573 -4.34660901 0 0 Z " fill="#FAFAFA" transform="translate(313.25,360.5)"/>
<path d="M0 0 C6.2996938 2.82818623 11.07626785 7.96709998 13.71484375 14.34765625 C14.71509627 21.18659211 13.60202029 26.65662655 9.71484375 32.34765625 C5.54921141 37.41396585 1.31658384 39.84532151 -5.0859375 40.73828125 C-11.57439117 41.10104105 -16.17735304 40.33138201 -21.37109375 36.30859375 C-26.07355057 31.49097472 -28.50735636 25.93598777 -28.91015625 19.22265625 C-28.56987955 13.20164902 -25.94479398 9.02089827 -21.7578125 4.8125 C-15.22304083 -0.89087579 -8.45026893 -2.41229899 0 0 Z " fill="#FAFAFA" transform="translate(741.28515625,360.65234375)"/>
<path d="M0 0 C5.1525567 2.37810309 8.02017833 5.54019489 10.83203125 10.4609375 C12.50463323 16.73319494 12.45389772 22.30888419 9.45703125 28.1484375 C6.39729172 33.06835958 3.10869446 35.43121643 -2.41796875 37.2734375 C-7.92953208 37.75858232 -12.79467937 38.04081066 -17.85546875 35.6484375 C-22.17411403 31.64579066 -26.85313706 27.2419303 -27.71875 21.16015625 C-27.75428667 14.49110864 -26.51927609 9.7065302 -22.04296875 4.5234375 C-15.33759402 -1.22402656 -8.59703228 -2.58327626 0 0 Z " fill="#222221" transform="translate(521.41796875,402.7265625)"/>
<path d="M0 0 C4.26114402 2.54423213 6.83416449 5.86455639 8.5625 10.5 C9.63913941 16.50250288 8.78944629 21.53146 5.765625 26.8125 C2.83194286 30.92727494 -0.76656681 32.88156262 -5.4375 34.5 C-11.97444191 35.42826529 -17.38817608 35.02218878 -22.77734375 31.02734375 C-27.77092272 26.43325109 -28.70441128 22.60906068 -29 16 C-28.82881026 11.02979112 -28.32570873 7.61579142 -24.96875 3.8671875 C-17.8468816 -2.49162357 -8.94585126 -3.79520962 0 0 Z " fill="#232321" transform="translate(523.4375,470.5)"/>
<path d="M0 0 C4.63144253 2.66285975 8.72770457 6.05721629 10.68359375 11.12109375 C11.75163103 17.50485858 11.87304504 23.30119099 8.05859375 28.74609375 C4.42533956 32.73258098 1.36528622 34.82562136 -4.1171875 35.4296875 C-10.75122505 35.70231918 -15.06794163 35.27612824 -20.31640625 31.12109375 C-24.85758926 25.26535776 -25.8409351 20.48576036 -25.796875 13.20703125 C-24.99786033 8.07514843 -22.17463465 5.37570925 -18.31640625 2.12109375 C-17.57390625 1.46109375 -16.83140625 0.80109375 -16.06640625 0.12109375 C-10.84280894 -1.77839618 -5.23712273 -1.9871039 0 0 Z " fill="#222221" transform="translate(519.31640625,529.87890625)"/>
<path d="M0 0 C0.66 0.33 1.32 0.66 2 1 C2 1.66 2 2.32 2 3 C1.43152344 3.30292969 0.86304688 3.60585938 0.27734375 3.91796875 C-4.7567752 6.64933546 -9.40657645 9.57936544 -14 13 C-12.47605205 8.79467528 -9.3847135 6.74995834 -5.875 4.25 C-5.03001953 3.63318359 -5.03001953 3.63318359 -4.16796875 3.00390625 C-2.78398366 1.99523915 -1.39269459 0.99660714 0 0 Z " fill="#D7D7D8" transform="translate(492,709)"/>
<path d="M0 0 C0 3 0 3 -2.5 5.6875 C-3.325 6.450625 -4.15 7.21375 -5 8 C-5.99 7.67 -6.98 7.34 -8 7 C-5.36 4.69 -2.72 2.38 0 0 Z " fill="#2A2B2A" transform="translate(276,343)"/>
<path d="M0 0 C0.33 0.99 0.66 1.98 1 3 C-1.97 5.475 -1.97 5.475 -5 8 C-5 5 -5 5 -2.5 2.3125 C-1.675 1.549375 -0.85 0.78625 0 0 Z " fill="#323232" transform="translate(389,397)"/>
</svg>
